#!OML:ASF H:\Swim 2\Project 1\Capture day 1\Session 1\male.ASF
:FULLY-SPECIFIED
:DEGREES
1413
root 1.35795 13.1531 8.32742 59.1259 -4.86426 -1.77959
lowerback 8.56385 3.58704 -8.65115
upperback -4.51004 4.45511 6.98884
thorax -11.1206 3.16821 11.9495
lowerneck -21.5048 -3.66632 -9.89606
upperneck 3.64766 -2.71491 4.49199
head 4.66824 -1.20411 2.7216
rclavicle -4.6118e-014 -6.52014e-014
rhumerus 9.55732 41.5828 -34.9752
rradius 101.039
rwrist -49.7794
rhand -11.7601 9.61177
rfingers 7.12502
rthumb 14.2881 -19.8767
lclavicle -4.6118e-014 -6.52014e-014
lhumerus 14.6834 -51.2598 52.6622
lradius 108.712
lwrist 62.8935
lhand -27.8883 -1.94421
lfingers 7.12502
lthumb -1.27806 28.0317
rfemur -61.6633 -10.7915 12.4073
rtibia 109.556
rfoot 9.95041 29.1756
rtoes -9.01449
lfemur -56.2223 10.8725 -15.6294
ltibia 111.608
lfoot -14.337 -18.1352
ltoes -1.69947
1414
root 1.36316 13.1699 8.30073 59.4033 -4.80008 -1.6384
lowerback 8.15748 3.54911 -8.61926
upperback -4.68807 4.433 6.93738
thorax -11.0654 3.15962 11.8855
lowerneck -21.6939 -3.78061 -9.91841
upperneck 3.53988 -2.83584 4.44824
head 4.6694 -1.26358 2.69723
rclavicle -3.02153e-014 -1.74931e-014
rhumerus 9.5978 42.0744 -34.9166
rradius 102.959
rwrist -50.0029
rhand -12.4297 10.3517
rfingers 7.12502
rthumb 13.6429 -19.1812
lclavicle -3.02153e-014 -1.74931e-014
lhumerus 15.4112 -51.3068 52.4295
lradius 110.221
lwrist 61.5836
lhand -26.9192 -2.03273
lfingers 7.12502
lthumb -0.342001 27.9467
rfemur -61.7303 -11.9924 12.0076
rtibia 110.871
rfoot 9.50265 29.8594
rtoes -9.76247
lfemur -56.1541 11.0927 -15.1866
ltibia 112.515
lfoot -15.6105 -17.9177
ltoes -4.47956
1415
root 1.36807 13.1862 8.27454 59.7366 -4.7383 -1.51527
lowerback 7.67698 3.50546 -8.58022
upperback -4.88714 4.40805 6.87744
thorax -10.987 3.14849 11.8099
lowerneck -21.9342 -3.89526 -9.93106
upperneck 3.52301 -2.95494 4.40399
head 4.70654 -1.32293 2.67071
rclavicle -3.49861e-014 -1.11319e-014
rhumerus 9.74058 42.477 -34.8751
rradius 104.823
rwrist -50.5395
rhand -13.2746 10.9729
rfingers 7.12502
rthumb 12.8285 -18.6129
lclavicle -3.49861e-014 -1.11319e-014
lhumerus 16.2476 -51.3442 52.0483
lradius 111.548
lwrist 59.3736
lhand -26.4831 -2.29339
lfingers 7.12502
lthumb 0.0791513 27.6863
rfemur -61.8081 -13.2208 11.5457
rtibia 112.215
rfoot 9.15142 30.5977
rtoes -10.5431
lfemur -56.1076 11.3643 -14.701
ltibia 113.452
lfoot -16.8216 -17.7425
ltoes -6.93291
1416
root 1.37238 13.2014 8.24854 60.1327 -4.68459 -1.41518
lowerback 7.11268 3.44938 -8.54625
upperback -5.11347 4.37094 6.8159
thorax -10.8861 3.13212 11.7406
lowerneck -22.2317 -4.00519 -9.92968
upperneck 3.61395 -3.06524 4.35089
head 4.78523 -1.37951 2.63915
rclavicle 2.54444e-014 3.18055e-015
rhumerus 9.98737 42.803 -34.8273
rradius 106.644
rwrist -51.2877
rhand -14.1776 11.4374
rfingers 7.12502
rthumb 11.9579 -18.2011
lclavicle 2.54444e-014 3.18055e-015
lhumerus 17.0835 -51.3684 51.5936
lradius 112.707
lwrist 56.3027
lhand -26.7273 -2.51898
lfingers 7.12502
lthumb -0.156665 27.4607
rfemur -61.8974 -14.4642 11.0182
rtibia 113.597
rfoot 8.84193 31.3801
rtoes -11.2764
lfemur -56.0881 11.7052 -14.169
ltibia 114.432
lfoot -17.925 -17.6699
ltoes -8.85113
1417
root 1.37668 13.2152 8.22126 60.5835 -4.62704 -1.32938
lowerback 6.48554 3.37021 -8.50652
upperback -5.36737 4.30758 6.76105
thorax -10.7715 3.10363 11.683
lowerneck -22.529 -4.08994 -9.90412
upperneck 3.74999 -3.14613 4.27126
head 4.87532 -1.42388 2.598
rclavicle 1.11319e-014 -6.36111e-015
rhumerus 10.3159 43.051 -34.7752
rradius 108.422
rwrist -51.9906
rhand -15.0987 11.7797
rfingers 7.12502
rthumb 11.0696 -17.9084
lclavicle 1.11319e-014 -6.36111e-015
lhumerus 17.8172 -51.3482 51.1473
lradius 113.714
lwrist 52.5436
lhand -27.3635 -2.37199
lfingers 7.12502
lthumb -0.771138 27.6064
rfemur -62.0005 -15.7617 10.4147
rtibia 115.042
rfoot 8.55934 32.2172
rtoes -11.9892
lfemur -56.1036 12.108 -13.581
ltibia 115.475
lfoot -18.8644 -17.7327
ltoes -10.1287
1418
root 1.3811 13.2273 8.19239 61.0844 -4.56151 -1.25865
lowerback 5.8094 3.26338 -8.45921
upperback -5.65116 4.21148 6.72096
thorax -10.6531 3.06075 11.6458
lowerneck -22.8025 -4.14863 -9.87137
upperneck 3.90174 -3.1956 4.17997
head 4.96447 -1.45413 2.5553
rclavicle 9.54166e-015 -3.02153e-014
rhumerus 10.7322 43.2315 -34.6881
rradius 110.128
rwrist -52.3837
rhand -15.9908 11.9852
rfingers 7.12502
rthumb 10.209 -17.7471
lclavicle 9.54166e-015 -3.02153e-014
lhumerus 18.3606 -51.246 50.7887
lradius 114.594
lwrist 48.3895
lhand -28.3225 -2.0815
lfingers 7.12502
lthumb -1.69736 27.8915
rfemur -62.1049 -17.1215 9.72529
rtibia 116.562
rfoot 8.30818 33.0975
rtoes -12.6342
lfemur -56.147 12.577 -12.9254
ltibia 116.591
lfoot -19.5831 -17.9894
ltoes -10.6076
1419
root 1.38626 13.2381 8.16244 61.6306 -4.48206 -1.18455
lowerback 5.09366 3.12502 -8.39709
upperback -5.96263 4.07696 6.69676
thorax -10.532 2.99982 11.6257
lowerneck -23.0387 -4.19443 -9.87991
upperneck 4.05049 -3.22363 4.12339
head 5.04713 -1.47245 2.53285
rclavicle -3.81667e-014 -2.22639e-014
rhumerus 11.2197 43.3559 -34.5464
rradius 111.73
rwrist -52.3629
rhand -16.8284 12.1685
rfingers 7.12502
rthumb 9.40095 -17.6018
lclavicle -3.81667e-014 -2.22639e-014
lhumerus 18.697 -51.0413 50.5492
lradius 115.385
lwrist 44.1744
lhand -29.3561 -1.68401
lfingers 7.12502
lthumb -2.69559 28.2787
rfemur -62.2228 -18.5914 8.92881
rtibia 118.173
rfoot 8.05889 34.022
rtoes -13.3914
lfemur -56.219 13.0895 -12.2056
ltibia 117.781
lfoot -20.2307 -18.2572
ltoes -10.9847
1420
root 1.39259 13.2476 8.13111 62.2139 -4.38241 -1.09761
lowerback 4.34167 2.95408 -8.3163
upperback -6.2936 3.90247 6.69576
thorax -10.4008 2.91908 11.6277
lowerneck -23.2158 -4.22695 -9.93829
upperneck 4.16521 -3.22944 4.10343
head 5.11036 -1.47812 2.53307
rclavicle 3.81667e-014 5.08889e-014
rhumerus 11.7796 43.4284 -34.3309
rradius 113.192
rwrist -51.9192
rhand -17.6292 12.3551
rfingers 7.12502
rthumb 8.62815 -17.4486
lclavicle 3.81667e-014 5.08889e-014
lhumerus 18.8634 -50.7438 50.4098
lradius 116.136
lwrist 40.2303
lhand -30.3913 -1.40055
lfingers 7.12502
lthumb -3.69534 28.5472
rfemur -62.3436 -20.205 7.99647
rtibia 119.867
rfoot 7.83772 34.9963
rtoes -14.2307
lfemur -56.3313 13.6371 -11.4163
ltibia 119.035
lfoot -20.789 -18.5477
ltoes -11.2896
1421
root 1.40003 13.2561 8.10034 62.8317 -4.26093 -0.991253
lowerback 3.54459 2.76582 -8.20714
upperback -6.63806 3.70831 6.70409
thorax -10.251 2.82588 11.6252
lowerneck -23.3718 -4.26443 -10.0208
upperneck 4.26093 -3.23872 4.10186
head 5.16541 -1.48454 2.54284
rclavicle 9.54166e-015 1.43125e-014
rhumerus 12.3559 43.3993 -34.0757
rradius 114.5
rwrist -51.2158
rhand -18.3527 12.5552
rfingers 7.12502
rthumb 7.92995 -17.276
lclavicle 9.54166e-015 1.43125e-014
lhumerus 18.998 -50.407 50.2767
lradius 116.896
lwrist 36.8207
lhand -31.4 -1.30553
lfingers 7.12502
lthumb -4.66937 28.623
rfemur -62.4448 -21.9707 6.90166
rtibia 121.649
rfoot 7.60838 36.0176
rtoes -15.1453
lfemur -56.4536 14.2099 -10.5536
ltibia 120.354
lfoot -21.2973 -18.8551
ltoes -11.5594
